<svg xmlns="http://www.w3.org/2000/svg" width="460" height="262" viewBox="0 0 460 262" role="img" aria-labelledby="t d">
  <title id="t">Contribution activity</title>
  <desc id="d">567 contributions in the last 365 days. Current streak 26 days, longest 26 days.</desc>
  <rect x="0" y="0" width="460" height="262" rx="8" fill="#0D1117"/>
  <path d="M0 8a8 8 0 0 1 8-8h444a8 8 0 0 1 8 8v22H0Z" fill="#161B22"/>
  <line x1="0" y1="30" x2="460" y2="30" stroke="#21262D" stroke-width="1"/>
  <circle cx="16" cy="15" r="4" fill="#FF5F57" opacity="0.85"/>
  <circle cx="32" cy="15" r="4" fill="#FEBC2E" opacity="0.85"/>
  <circle cx="48" cy="15" r="4" fill="#28C840" opacity="0.85"/>
  <text x="72" y="19.5" font-family="ui-monospace,SFMono-Regular,'SF Mono',Menlo,Consolas,'DejaVu Sans Mono',monospace" font-size="11" font-weight="400" fill="#6E7681">~/activity  ·  last 365 days</text>
  <text x="18" y="54" font-family="ui-monospace,SFMono-Regular,'SF Mono',Menlo,Consolas,'DejaVu Sans Mono',monospace" font-size="10" font-weight="400" fill="#6E7681">contributions</text>
  <text x="18" y="94" font-family="ui-monospace,SFMono-Regular,'SF Mono',Menlo,Consolas,'DejaVu Sans Mono',monospace" font-size="40" font-weight="700" fill="#E6EDF3"><title>567 contributions in the last 365 days</title>567</text>
  <text x="102" y="92" font-family="ui-monospace,SFMono-Regular,'SF Mono',Menlo,Consolas,'DejaVu Sans Mono',monospace" font-size="10.5" font-weight="400" fill="#8B949E">▼ 11% vs prior 30d</text>
  <line x1="18" y1="106" x2="442" y2="106" stroke="#21262D" stroke-width="1"/>
  <text x="18" y="124" font-family="ui-monospace,SFMono-Regular,'SF Mono',Menlo,Consolas,'DejaVu Sans Mono',monospace" font-size="9.5" font-weight="400" fill="#6E7681">current streak</text>
  <text x="18" y="146" font-family="ui-monospace,SFMono-Regular,'SF Mono',Menlo,Consolas,'DejaVu Sans Mono',monospace" font-size="17" font-weight="500" fill="#E6EDF3">26d</text>
  <text x="124" y="124" font-family="ui-monospace,SFMono-Regular,'SF Mono',Menlo,Consolas,'DejaVu Sans Mono',monospace" font-size="9.5" font-weight="400" fill="#6E7681">longest streak</text>
  <text x="124" y="146" font-family="ui-monospace,SFMono-Regular,'SF Mono',Menlo,Consolas,'DejaVu Sans Mono',monospace" font-size="17" font-weight="500" fill="#E6EDF3">26d</text>
  <text x="230" y="124" font-family="ui-monospace,SFMono-Regular,'SF Mono',Menlo,Consolas,'DejaVu Sans Mono',monospace" font-size="9.5" font-weight="400" fill="#6E7681">commits</text>
  <text x="230" y="146" font-family="ui-monospace,SFMono-Regular,'SF Mono',Menlo,Consolas,'DejaVu Sans Mono',monospace" font-size="17" font-weight="500" fill="#E6EDF3">500</text>
  <text x="230" y="160" font-family="ui-monospace,SFMono-Regular,'SF Mono',Menlo,Consolas,'DejaVu Sans Mono',monospace" font-size="9" font-weight="400" fill="#6E7681">▲ 190 in 30d</text>
  <text x="336" y="124" font-family="ui-monospace,SFMono-Regular,'SF Mono',Menlo,Consolas,'DejaVu Sans Mono',monospace" font-size="9.5" font-weight="400" fill="#6E7681">stars earned</text>
  <text x="336" y="146" font-family="ui-monospace,SFMono-Regular,'SF Mono',Menlo,Consolas,'DejaVu Sans Mono',monospace" font-size="17" font-weight="500" fill="#E6EDF3">12</text>
  <text x="336" y="160" font-family="ui-monospace,SFMono-Regular,'SF Mono',Menlo,Consolas,'DejaVu Sans Mono',monospace" font-size="9" font-weight="400" fill="#6E7681">▲ 2 in 30d</text>
  <text x="18" y="190" font-family="ui-monospace,SFMono-Regular,'SF Mono',Menlo,Consolas,'DejaVu Sans Mono',monospace" font-size="9.5" font-weight="400" fill="#6E7681">last 30 days</text>
  <line x1="18" y1="232" x2="442" y2="232" stroke="#21262D" stroke-width="1"/>
  <rect x="18" y="230.5" width="12.133333333333333" height="1.5" rx="0" fill="#21262D"/>
  <path d="M32.13333333333333 232V230.9A4 4 0 0 1 36.13333333333333 226.9H40.266666666666666A4 4 0 0 1 44.266666666666666 230.9V232Z" fill="#1A7F37"><title>Thu 10 Sep — 3 contributions</title></path>
  <path d="M46.266666666666666 232V232A2 2 0 0 1 48.266666666666666 230H56.4A2 2 0 0 1 58.4 232V232Z" fill="#1A7F37"><title>Fri 11 Sep — 1 contribution</title></path>
  <rect x="60.4" y="230.5" width="12.133333333333333" height="1.5" rx="0" fill="#21262D"/>
  <path d="M74.53333333333333 232V212.2A4 4 0 0 1 78.53333333333333 208.2H82.66666666666666A4 4 0 0 1 86.66666666666666 212.2V232Z" fill="#1A7F37"><title>Sun 13 Sep — 14 contributions</title></path>
  <path d="M88.66666666666666 232V225.8A4 4 0 0 1 92.66666666666666 221.8H96.79999999999998A4 4 0 0 1 100.79999999999998 225.8V232Z" fill="#1A7F37"><title>Mon 14 Sep — 6 contributions</title></path>
  <path d="M102.8 232V222.4A4 4 0 0 1 106.8 218.4H110.93333333333334A4 4 0 0 1 114.93333333333334 222.4V232Z" fill="#1A7F37"><title>Tue 15 Sep — 8 contributions</title></path>
  <path d="M116.93333333333334 232V212.2A4 4 0 0 1 120.93333333333334 208.2H125.06666666666666A4 4 0 0 1 129.06666666666666 212.2V232Z" fill="#1A7F37"><title>Wed 16 Sep — 14 contributions</title></path>
  <path d="M131.06666666666666 232V224.1A4 4 0 0 1 135.06666666666666 220.1H139.2A4 4 0 0 1 143.2 224.1V232Z" fill="#1A7F37"><title>Thu 17 Sep — 7 contributions</title></path>
  <path d="M145.2 232V220.7A4 4 0 0 1 149.2 216.7H153.33333333333331A4 4 0 0 1 157.33333333333331 220.7V232Z" fill="#1A7F37"><title>Fri 18 Sep — 9 contributions</title></path>
  <path d="M159.33333333333331 232V212.2A4 4 0 0 1 163.33333333333331 208.2H167.46666666666664A4 4 0 0 1 171.46666666666664 212.2V232Z" fill="#1A7F37"><title>Sat 19 Sep — 14 contributions</title></path>
  <path d="M173.46666666666667 232V232A3.4000000000000004 3.4000000000000004 0 0 1 176.86666666666667 228.6H182.2A3.4000000000000004 3.4000000000000004 0 0 1 185.6 232V232Z" fill="#1A7F37"><title>Sun 20 Sep — 2 contributions</title></path>
  <path d="M187.6 232V225.8A4 4 0 0 1 191.6 221.8H195.73333333333332A4 4 0 0 1 199.73333333333332 225.8V232Z" fill="#1A7F37"><title>Mon 21 Sep — 6 contributions</title></path>
  <path d="M201.73333333333332 232V227.5A4 4 0 0 1 205.73333333333332 223.5H209.86666666666665A4 4 0 0 1 213.86666666666665 227.5V232Z" fill="#1A7F37"><title>Tue 22 Sep — 5 contributions</title></path>
  <path d="M215.86666666666667 232V227.5A4 4 0 0 1 219.86666666666667 223.5H224A4 4 0 0 1 228 227.5V232Z" fill="#1A7F37"><title>Wed 23 Sep — 5 contributions</title></path>
  <path d="M230 232V229.2A4 4 0 0 1 234 225.2H238.13333333333333A4 4 0 0 1 242.13333333333333 229.2V232Z" fill="#1A7F37"><title>Thu 24 Sep — 4 contributions</title></path>
  <path d="M244.13333333333333 232V229.2A4 4 0 0 1 248.13333333333333 225.2H252.26666666666665A4 4 0 0 1 256.26666666666665 229.2V232Z" fill="#1A7F37"><title>Fri 25 Sep — 4 contributions</title></path>
  <path d="M258.26666666666665 232V229.2A4 4 0 0 1 262.26666666666665 225.2H266.4A4 4 0 0 1 270.4 229.2V232Z" fill="#1A7F37"><title>Sat 26 Sep — 4 contributions</title></path>
  <path d="M272.4 232V224.1A4 4 0 0 1 276.4 220.1H280.5333333333333A4 4 0 0 1 284.5333333333333 224.1V232Z" fill="#1A7F37"><title>Sun 27 Sep — 7 contributions</title></path>
  <path d="M286.5333333333333 232V229.2A4 4 0 0 1 290.5333333333333 225.2H294.66666666666663A4 4 0 0 1 298.66666666666663 229.2V232Z" fill="#1A7F37"><title>Mon 28 Sep — 4 contributions</title></path>
  <path d="M300.66666666666663 232V225.8A4 4 0 0 1 304.66666666666663 221.8H308.79999999999995A4 4 0 0 1 312.79999999999995 225.8V232Z" fill="#1A7F37"><title>Tue 29 Sep — 6 contributions</title></path>
  <path d="M314.8 232V225.8A4 4 0 0 1 318.8 221.8H322.93333333333334A4 4 0 0 1 326.93333333333334 225.8V232Z" fill="#1A7F37"><title>Wed 30 Sep — 6 contributions</title></path>
  <path d="M328.93333333333334 232V222.4A4 4 0 0 1 332.93333333333334 218.4H337.06666666666666A4 4 0 0 1 341.06666666666666 222.4V232Z" fill="#1A7F37"><title>Thu 1 Oct — 8 contributions</title></path>
  <path d="M343.06666666666666 232V220.7A4 4 0 0 1 347.06666666666666 216.7H351.2A4 4 0 0 1 355.2 220.7V232Z" fill="#1A7F37"><title>Fri 2 Oct — 9 contributions</title></path>
  <path d="M357.2 232V219A4 4 0 0 1 361.2 215H365.3333333333333A4 4 0 0 1 369.3333333333333 219V232Z" fill="#1A7F37"><title>Sat 3 Oct — 10 contributions</title></path>
  <path d="M371.3333333333333 232V232A2 2 0 0 1 373.3333333333333 230H381.46666666666664A2 2 0 0 1 383.46666666666664 232V232Z" fill="#1A7F37"><title>Sun 4 Oct — 1 contribution</title></path>
  <path d="M385.46666666666664 232V230.9A4 4 0 0 1 389.46666666666664 226.9H393.59999999999997A4 4 0 0 1 397.59999999999997 230.9V232Z" fill="#1A7F37"><title>Mon 5 Oct — 3 contributions</title></path>
  <path d="M399.59999999999997 232V225.8A4 4 0 0 1 403.59999999999997 221.8H407.7333333333333A4 4 0 0 1 411.7333333333333 225.8V232Z" fill="#1A7F37"><title>Tue 6 Oct — 6 contributions</title></path>
  <path d="M413.73333333333335 232V225.8A4 4 0 0 1 417.73333333333335 221.8H421.8666666666667A4 4 0 0 1 425.8666666666667 225.8V232Z" fill="#1A7F37"><title>Wed 7 Oct — 6 contributions</title></path>
  <path d="M427.8666666666667 232V202A4 4 0 0 1 431.8666666666667 198H436A4 4 0 0 1 440 202V232Z" fill="#3FB950"><title>Thu 8 Oct — 20 contributions</title></path>
  <text x="18" y="246" font-family="ui-monospace,SFMono-Regular,'SF Mono',Menlo,Consolas,'DejaVu Sans Mono',monospace" font-size="9" font-weight="400" fill="#6E7681">9 Sep</text>
  <text x="442" y="246" font-family="ui-monospace,SFMono-Regular,'SF Mono',Menlo,Consolas,'DejaVu Sans Mono',monospace" font-size="9" font-weight="400" fill="#6E7681" text-anchor="end">8 Oct</text>
  <text x="442" y="190" font-family="ui-monospace,SFMono-Regular,'SF Mono',Menlo,Consolas,'DejaVu Sans Mono',monospace" font-size="9.5" font-weight="400" fill="#6E7681" text-anchor="end">peak 20 contributions</text>
</svg>
