<svg xmlns="http://www.w3.org/2000/svg" width="880" height="276" viewBox="0 0 880 276" role="img" aria-labelledby="t d">
  <title id="t">Repository skyline</title>
  <desc id="d">8 repositories as buildings, ranked by commits on the default branch. Building height is commit count, footprint is repo size, and a lit facade means pushed in the last 30 days. 4 occupied, 4 dormant. Tallest is Kairo-v1 with 268 commits. 1 are private and are shown for their activity only.</desc>
  <style>
    @media (prefers-reduced-motion: reduce){*{animation:none!important;opacity:1!important}}
    .win{animation:lamps 900ms ease-out}
    @keyframes lamps{from{opacity:.3}to{opacity:1}}
    .w0{animation-duration:620ms}
    .w1{animation-duration:710ms}
    .w2{animation-duration:800ms}
    .w3{animation-duration:890ms}
    .w4{animation-duration:980ms}
    .w5{animation-duration:1070ms}
    .w6{animation-duration:1160ms}
    .w7{animation-duration:1250ms}
  </style>
  <rect x="0" y="0" width="880" height="276" rx="8" fill="#0D1117"/>
  <path d="M0 8a8 8 0 0 1 8-8h864a8 8 0 0 1 8 8v22H0Z" fill="#161B22"/>
  <line x1="0" y1="30" x2="880" y2="30" stroke="#21262D" stroke-width="1"/>
  <circle cx="16" cy="15" r="4" fill="#FF5F57" opacity="0.85"/>
  <circle cx="32" cy="15" r="4" fill="#FEBC2E" opacity="0.85"/>
  <circle cx="48" cy="15" r="4" fill="#28C840" opacity="0.85"/>
  <text x="72" y="19.5" font-family="ui-monospace,SFMono-Regular,'SF Mono',Menlo,Consolas,'DejaVu Sans Mono',monospace" font-size="11" font-weight="400" fill="#6E7681">~/city  ·  8 repos ranked by commits</text>
  <polygon points="20,178 36,170 821.6017899330842,170 821.6017899330842,178" fill="#161B22"/>
  <rect x="20" y="178" width="801.6017899330842" height="9" rx="0" fill="#161B22"/>
  <line x1="20" y1="178" x2="821.6017899330842" y2="178" stroke="#30363D" stroke-width="1"/>
  <g>
    <title>Kairo-v1 — 268 commits on the default branch · 3.1 MB · 0 stars · pushed 3 Sep 2026 (occupied) · private</title>
  <polygon points="89.68916356877624,178 89.68916356877624,58 105.68916356877624,50 105.68916356877624,170" fill="#116329"/>
  <polygon points="20,58 89.68916356877624,58 105.68916356877624,50 36,50" fill="#3FB950"/>
  <polygon points="20,178 89.68916356877624,178 89.68916356877624,58 20,58" fill="#1A7F37"/>
    <g class="win w0">
  <rect x="32.84458178438812" y="67" width="4" height="5" rx="1" fill="#7EE787"/>
  <rect x="42.84458178438812" y="67" width="4" height="5" rx="1" fill="#7EE787"/>
  <rect x="52.84458178438812" y="67" width="4" height="5" rx="1" fill="#7EE787"/>
  <rect x="62.84458178438812" y="67" width="4" height="5" rx="1" fill="#7EE787"/>
  <rect x="72.84458178438811" y="67" width="4" height="5" rx="1" fill="#7EE787"/>
  <rect x="32.84458178438812" y="80" width="4" height="5" rx="1" fill="#7EE787"/>
  <rect x="42.84458178438812" y="80" width="4" height="5" rx="1" fill="#7EE787"/>
  <rect x="52.84458178438812" y="80" width="4" height="5" rx="1" fill="#7EE787"/>
  <rect x="62.84458178438812" y="80" width="4" height="5" rx="1" fill="#7EE787"/>
  <rect x="72.84458178438811" y="80" width="4" height="5" rx="1" fill="#7EE787"/>
  <rect x="32.84458178438812" y="93" width="4" height="5" rx="1" fill="#7EE787"/>
  <rect x="42.84458178438812" y="93" width="4" height="5" rx="1" fill="#7EE787"/>
  <rect x="52.84458178438812" y="93" width="4" height="5" rx="1" fill="#7EE787"/>
  <rect x="62.84458178438812" y="93" width="4" height="5" rx="1" fill="#7EE787"/>
  <rect x="72.84458178438811" y="93" width="4" height="5" rx="1" fill="#7EE787"/>
  <rect x="32.84458178438812" y="106" width="4" height="5" rx="1" fill="#7EE787"/>
  <rect x="42.84458178438812" y="106" width="4" height="5" rx="1" fill="#7EE787"/>
  <rect x="52.84458178438812" y="106" width="4" height="5" rx="1" fill="#7EE787"/>
  <rect x="62.84458178438812" y="106" width="4" height="5" rx="1" fill="#7EE787"/>
  <rect x="72.84458178438811" y="106" width="4" height="5" rx="1" fill="#7EE787"/>
  <rect x="32.84458178438812" y="119" width="4" height="5" rx="1" fill="#7EE787"/>
  <rect x="42.84458178438812" y="119" width="4" height="5" rx="1" fill="#7EE787"/>
  <rect x="52.84458178438812" y="119" width="4" height="5" rx="1" fill="#7EE787"/>
  <rect x="62.84458178438812" y="119" width="4" height="5" rx="1" fill="#7EE787"/>
  <rect x="72.84458178438811" y="119" width="4" height="5" rx="1" fill="#7EE787"/>
  <rect x="32.84458178438812" y="132" width="4" height="5" rx="1" fill="#7EE787"/>
  <rect x="42.84458178438812" y="132" width="4" height="5" rx="1" fill="#7EE787"/>
  <rect x="52.84458178438812" y="132" width="4" height="5" rx="1" fill="#7EE787"/>
  <rect x="62.84458178438812" y="132" width="4" height="5" rx="1" fill="#7EE787"/>
  <rect x="72.84458178438811" y="132" width="4" height="5" rx="1" fill="#7EE787"/>
  <rect x="32.84458178438812" y="145" width="4" height="5" rx="1" fill="#7EE787"/>
  <rect x="42.84458178438812" y="145" width="4" height="5" rx="1" fill="#7EE787"/>
  <rect x="52.84458178438812" y="145" width="4" height="5" rx="1" fill="#7EE787"/>
  <rect x="62.84458178438812" y="145" width="4" height="5" rx="1" fill="#7EE787"/>
  <rect x="72.84458178438811" y="145" width="4" height="5" rx="1" fill="#7EE787"/>
  <rect x="32.84458178438812" y="158" width="4" height="5" rx="1" fill="#7EE787"/>
  <rect x="42.84458178438812" y="158" width="4" height="5" rx="1" fill="#7EE787"/>
  <rect x="52.84458178438812" y="158" width="4" height="5" rx="1" fill="#7EE787"/>
  <rect x="62.84458178438812" y="158" width="4" height="5" rx="1" fill="#7EE787"/>
  <rect x="72.84458178438811" y="158" width="4" height="5" rx="1" fill="#7EE787"/>
    </g>
  </g>
  <text x="20" y="204" font-family="ui-monospace,SFMono-Regular,'SF Mono',Menlo,Consolas,'DejaVu Sans Mono',monospace" font-size="9.5" font-weight="500" fill="#E6EDF3"><title>Kairo-v1 — 268 commits on the default branch · 3.1 MB · 0 stars · pushed 3 Sep 2026 (occupied) · private</title>Kairo-v1</text>
  <text x="20" y="217" font-family="ui-monospace,SFMono-Regular,'SF Mono',Menlo,Consolas,'DejaVu Sans Mono',monospace" font-size="9" font-weight="400" fill="#6E7681"><title>Kairo-v1 — 268 commits on the default branch · 3.1 MB · 0 stars · pushed 3 Sep 2026 (occupied) · private</title>● 268 · private</text>
  <g>
    <title>python-study — 210 commits on the default branch · 2.3 MB · 2 stars · pushed 24 Aug 2026 (occupied)</title>
  <polygon points="191.57983021710106,178 191.57983021710106,80.94029850746269 207.57983021710106,72.94029850746269 207.57983021710106,170" fill="#116329"/>
  <polygon points="125,80.94029850746269 191.57983021710106,80.94029850746269 207.57983021710106,72.94029850746269 141,72.94029850746269" fill="#3FB950"/>
  <polygon points="125,178 191.57983021710106,178 191.57983021710106,80.94029850746269 125,80.94029850746269" fill="#1A7F37"/>
    <g class="win w1">
  <rect x="136.28991510855053" y="89.94029850746269" width="4" height="5" rx="1" fill="#7EE787"/>
  <rect x="146.28991510855053" y="89.94029850746269" width="4" height="5" rx="1" fill="#7EE787"/>
  <rect x="156.28991510855053" y="89.94029850746269" width="4" height="5" rx="1" fill="#7EE787"/>
  <rect x="166.28991510855053" y="89.94029850746269" width="4" height="5" rx="1" fill="#7EE787"/>
  <rect x="176.28991510855053" y="89.94029850746269" width="4" height="5" rx="1" fill="#7EE787"/>
  <rect x="136.28991510855053" y="102.94029850746269" width="4" height="5" rx="1" fill="#7EE787"/>
  <rect x="146.28991510855053" y="102.94029850746269" width="4" height="5" rx="1" fill="#7EE787"/>
  <rect x="156.28991510855053" y="102.94029850746269" width="4" height="5" rx="1" fill="#7EE787"/>
  <rect x="166.28991510855053" y="102.94029850746269" width="4" height="5" rx="1" fill="#7EE787"/>
  <rect x="176.28991510855053" y="102.94029850746269" width="4" height="5" rx="1" fill="#7EE787"/>
  <rect x="136.28991510855053" y="115.94029850746269" width="4" height="5" rx="1" fill="#7EE787"/>
  <rect x="146.28991510855053" y="115.94029850746269" width="4" height="5" rx="1" fill="#7EE787"/>
  <rect x="156.28991510855053" y="115.94029850746269" width="4" height="5" rx="1" fill="#7EE787"/>
  <rect x="166.28991510855053" y="115.94029850746269" width="4" height="5" rx="1" fill="#7EE787"/>
  <rect x="176.28991510855053" y="115.94029850746269" width="4" height="5" rx="1" fill="#7EE787"/>
  <rect x="136.28991510855053" y="128.94029850746267" width="4" height="5" rx="1" fill="#7EE787"/>
  <rect x="146.28991510855053" y="128.94029850746267" width="4" height="5" rx="1" fill="#7EE787"/>
  <rect x="156.28991510855053" y="128.94029850746267" width="4" height="5" rx="1" fill="#7EE787"/>
  <rect x="166.28991510855053" y="128.94029850746267" width="4" height="5" rx="1" fill="#7EE787"/>
  <rect x="176.28991510855053" y="128.94029850746267" width="4" height="5" rx="1" fill="#7EE787"/>
  <rect x="136.28991510855053" y="141.94029850746267" width="4" height="5" rx="1" fill="#7EE787"/>
  <rect x="146.28991510855053" y="141.94029850746267" width="4" height="5" rx="1" fill="#7EE787"/>
  <rect x="156.28991510855053" y="141.94029850746267" width="4" height="5" rx="1" fill="#7EE787"/>
  <rect x="166.28991510855053" y="141.94029850746267" width="4" height="5" rx="1" fill="#7EE787"/>
  <rect x="176.28991510855053" y="141.94029850746267" width="4" height="5" rx="1" fill="#7EE787"/>
  <rect x="136.28991510855053" y="154.94029850746267" width="4" height="5" rx="1" fill="#7EE787"/>
  <rect x="146.28991510855053" y="154.94029850746267" width="4" height="5" rx="1" fill="#7EE787"/>
  <rect x="156.28991510855053" y="154.94029850746267" width="4" height="5" rx="1" fill="#7EE787"/>
  <rect x="166.28991510855053" y="154.94029850746267" width="4" height="5" rx="1" fill="#7EE787"/>
  <rect x="176.28991510855053" y="154.94029850746267" width="4" height="5" rx="1" fill="#7EE787"/>
    </g>
  </g>
  <polygon points="153.93991510855054,60.940298507462686 154.83805097405343,63.704120540057765 157.74414117373115,63.7042305299629 155.39312946544953,65.4124764748676 156.29105611772042,68.17636648496247 153.93991510855054,66.46829850746269 151.58877409938066,68.17636648496247 152.48670075165154,65.4124764748676 150.13568904336992,63.7042305299629 153.04177924304764,63.704120540057765" fill="#3FB950"/>
  <text x="160.93991510855054" y="68.34029850746269" font-family="ui-monospace,SFMono-Regular,'SF Mono',Menlo,Consolas,'DejaVu Sans Mono',monospace" font-size="9.5" font-weight="500" fill="#E6EDF3"><title>python-study — 210 commits on the default branch · 2.3 MB · 2 stars · pushed 24 Aug 2026 (occupied)</title>2</text>
  <text x="125" y="204" font-family="ui-monospace,SFMono-Regular,'SF Mono',Menlo,Consolas,'DejaVu Sans Mono',monospace" font-size="9.5" font-weight="500" fill="#E6EDF3"><title>python-study — 210 commits on the default branch · 2.3 MB · 2 stars · pushed 24 Aug 2026 (occupied)</title>python-study</text>
  <text x="125" y="217" font-family="ui-monospace,SFMono-Regular,'SF Mono',Menlo,Consolas,'DejaVu Sans Mono',monospace" font-size="9" font-weight="400" fill="#6E7681"><title>python-study — 210 commits on the default branch · 2.3 MB · 2 stars · pushed 24 Aug 2026 (occupied)</title>● 210</text>
  <g>
    <title>gsmhub — 186 commits on the default branch · 5.0 MB · 1 star · pushed 18 Aug 2026 (occupied)</title>
  <polygon points="306,178 306,90.43283582089552 322,82.43283582089552 322,170" fill="#116329"/>
  <polygon points="230,90.43283582089552 306,90.43283582089552 322,82.43283582089552 246,82.43283582089552" fill="#3FB950"/>
  <polygon points="230,178 306,178 306,90.43283582089552 230,90.43283582089552" fill="#1A7F37"/>
    <g class="win w2">
  <rect x="241" y="99.43283582089552" width="4" height="5" rx="1" fill="#7EE787"/>
  <rect x="251" y="99.43283582089552" width="4" height="5" rx="1" fill="#7EE787"/>
  <rect x="261" y="99.43283582089552" width="4" height="5" rx="1" fill="#7EE787"/>
  <rect x="271" y="99.43283582089552" width="4" height="5" rx="1" fill="#7EE787"/>
  <rect x="281" y="99.43283582089552" width="4" height="5" rx="1" fill="#7EE787"/>
  <rect x="291" y="99.43283582089552" width="4" height="5" rx="1" fill="#7EE787"/>
  <rect x="241" y="112.43283582089552" width="4" height="5" rx="1" fill="#7EE787"/>
  <rect x="251" y="112.43283582089552" width="4" height="5" rx="1" fill="#7EE787"/>
  <rect x="261" y="112.43283582089552" width="4" height="5" rx="1" fill="#7EE787"/>
  <rect x="271" y="112.43283582089552" width="4" height="5" rx="1" fill="#7EE787"/>
  <rect x="281" y="112.43283582089552" width="4" height="5" rx="1" fill="#7EE787"/>
  <rect x="291" y="112.43283582089552" width="4" height="5" rx="1" fill="#7EE787"/>
  <rect x="241" y="125.43283582089552" width="4" height="5" rx="1" fill="#7EE787"/>
  <rect x="251" y="125.43283582089552" width="4" height="5" rx="1" fill="#7EE787"/>
  <rect x="261" y="125.43283582089552" width="4" height="5" rx="1" fill="#7EE787"/>
  <rect x="271" y="125.43283582089552" width="4" height="5" rx="1" fill="#7EE787"/>
  <rect x="281" y="125.43283582089552" width="4" height="5" rx="1" fill="#7EE787"/>
  <rect x="291" y="125.43283582089552" width="4" height="5" rx="1" fill="#7EE787"/>
  <rect x="241" y="138.43283582089552" width="4" height="5" rx="1" fill="#7EE787"/>
  <rect x="251" y="138.43283582089552" width="4" height="5" rx="1" fill="#7EE787"/>
  <rect x="261" y="138.43283582089552" width="4" height="5" rx="1" fill="#7EE787"/>
  <rect x="271" y="138.43283582089552" width="4" height="5" rx="1" fill="#7EE787"/>
  <rect x="281" y="138.43283582089552" width="4" height="5" rx="1" fill="#7EE787"/>
  <rect x="291" y="138.43283582089552" width="4" height="5" rx="1" fill="#7EE787"/>
  <rect x="241" y="151.43283582089552" width="4" height="5" rx="1" fill="#7EE787"/>
  <rect x="251" y="151.43283582089552" width="4" height="5" rx="1" fill="#7EE787"/>
  <rect x="261" y="151.43283582089552" width="4" height="5" rx="1" fill="#7EE787"/>
  <rect x="271" y="151.43283582089552" width="4" height="5" rx="1" fill="#7EE787"/>
  <rect x="281" y="151.43283582089552" width="4" height="5" rx="1" fill="#7EE787"/>
  <rect x="291" y="151.43283582089552" width="4" height="5" rx="1" fill="#7EE787"/>
  <rect x="241" y="164.43283582089552" width="4" height="5" rx="1" fill="#7EE787"/>
  <rect x="251" y="164.43283582089552" width="4" height="5" rx="1" fill="#7EE787"/>
  <rect x="261" y="164.43283582089552" width="4" height="5" rx="1" fill="#7EE787"/>
  <rect x="271" y="164.43283582089552" width="4" height="5" rx="1" fill="#7EE787"/>
  <rect x="281" y="164.43283582089552" width="4" height="5" rx="1" fill="#7EE787"/>
  <rect x="291" y="164.43283582089552" width="4" height="5" rx="1" fill="#7EE787"/>
    </g>
  </g>
  <polygon points="263.65,70.43283582089552 264.5481358655029,73.1966578534906 267.4542260651806,73.19676784339573 265.10321435689895,74.90501378830044 266.0011410091699,77.6689037983953 263.65,75.96083582089553 261.29885899083007,77.6689037983953 262.196785643101,74.90501378830044 259.84577393481936,73.19676784339573 262.75186413449705,73.1966578534906" fill="#3FB950"/>
  <text x="270.65" y="77.83283582089553" font-family="ui-monospace,SFMono-Regular,'SF Mono',Menlo,Consolas,'DejaVu Sans Mono',monospace" font-size="9.5" font-weight="500" fill="#E6EDF3"><title>gsmhub — 186 commits on the default branch · 5.0 MB · 1 star · pushed 18 Aug 2026 (occupied)</title>1</text>
  <text x="230" y="204" font-family="ui-monospace,SFMono-Regular,'SF Mono',Menlo,Consolas,'DejaVu Sans Mono',monospace" font-size="9.5" font-weight="500" fill="#E6EDF3"><title>gsmhub — 186 commits on the default branch · 5.0 MB · 1 star · pushed 18 Aug 2026 (occupied)</title>gsmhub</text>
  <text x="230" y="217" font-family="ui-monospace,SFMono-Regular,'SF Mono',Menlo,Consolas,'DejaVu Sans Mono',monospace" font-size="9" font-weight="400" fill="#6E7681"><title>gsmhub — 186 commits on the default branch · 5.0 MB · 1 star · pushed 18 Aug 2026 (occupied)</title>● 186</text>
  <g>
    <title>golang-study — 152 commits on the default branch · 740.0 kB · 3 stars · pushed 2 Jul 2026 (dormant)</title>
  <polygon points="392.42752096012595,178 392.42752096012595,103.88059701492537 408.42752096012595,95.88059701492537 408.42752096012595,170" fill="#21262D"/>
  <polygon points="335,103.88059701492537 392.42752096012595,103.88059701492537 408.42752096012595,95.88059701492537 351,95.88059701492537" fill="#484F58"/>
  <polygon points="335,178 392.42752096012595,178 392.42752096012595,103.88059701492537 335,103.88059701492537" fill="#30363D"/>
    <g class="win w3">
  <rect x="346.71376048006294" y="112.88059701492537" width="4" height="5" rx="1" fill="#0D1117"/>
  <rect x="356.71376048006294" y="112.88059701492537" width="4" height="5" rx="1" fill="#0D1117"/>
  <rect x="366.71376048006294" y="112.88059701492537" width="4" height="5" rx="1" fill="#0D1117"/>
  <rect x="376.71376048006294" y="112.88059701492537" width="4" height="5" rx="1" fill="#0D1117"/>
  <rect x="346.71376048006294" y="125.88059701492537" width="4" height="5" rx="1" fill="#0D1117"/>
  <rect x="356.71376048006294" y="125.88059701492537" width="4" height="5" rx="1" fill="#0D1117"/>
  <rect x="366.71376048006294" y="125.88059701492537" width="4" height="5" rx="1" fill="#0D1117"/>
  <rect x="376.71376048006294" y="125.88059701492537" width="4" height="5" rx="1" fill="#0D1117"/>
  <rect x="346.71376048006294" y="138.88059701492537" width="4" height="5" rx="1" fill="#0D1117"/>
  <rect x="356.71376048006294" y="138.88059701492537" width="4" height="5" rx="1" fill="#0D1117"/>
  <rect x="366.71376048006294" y="138.88059701492537" width="4" height="5" rx="1" fill="#0D1117"/>
  <rect x="376.71376048006294" y="138.88059701492537" width="4" height="5" rx="1" fill="#0D1117"/>
  <rect x="346.71376048006294" y="151.88059701492537" width="4" height="5" rx="1" fill="#0D1117"/>
  <rect x="356.71376048006294" y="151.88059701492537" width="4" height="5" rx="1" fill="#0D1117"/>
  <rect x="366.71376048006294" y="151.88059701492537" width="4" height="5" rx="1" fill="#0D1117"/>
  <rect x="376.71376048006294" y="151.88059701492537" width="4" height="5" rx="1" fill="#0D1117"/>
  <rect x="346.71376048006294" y="164.88059701492537" width="4" height="5" rx="1" fill="#0D1117"/>
  <rect x="356.71376048006294" y="164.88059701492537" width="4" height="5" rx="1" fill="#0D1117"/>
  <rect x="366.71376048006294" y="164.88059701492537" width="4" height="5" rx="1" fill="#0D1117"/>
  <rect x="376.71376048006294" y="164.88059701492537" width="4" height="5" rx="1" fill="#0D1117"/>
    </g>
  </g>
  <polygon points="359.3637604800629,83.88059701492537 360.26189634556584,86.64441904752046 363.16798654524354,86.64452903742558 360.8169748369619,88.35277498233029 361.71490148923283,91.11666499242516 359.3637604800629,89.40859701492538 357.012619470893,91.11666499242516 357.91054612316395,88.35277498233029 355.5595344148823,86.64452903742558 358.46562461456,86.64441904752046" fill="#3FB950"/>
  <text x="366.3637604800629" y="91.28059701492538" font-family="ui-monospace,SFMono-Regular,'SF Mono',Menlo,Consolas,'DejaVu Sans Mono',monospace" font-size="9.5" font-weight="500" fill="#E6EDF3"><title>golang-study — 152 commits on the default branch · 740.0 kB · 3 stars · pushed 2 Jul 2026 (dormant)</title>3</text>
  <text x="335" y="204" font-family="ui-monospace,SFMono-Regular,'SF Mono',Menlo,Consolas,'DejaVu Sans Mono',monospace" font-size="9.5" font-weight="500" fill="#8B949E"><title>golang-study — 152 commits on the default branch · 740.0 kB · 3 stars · pushed 2 Jul 2026 (dormant)</title>golang-study</text>
  <text x="335" y="217" font-family="ui-monospace,SFMono-Regular,'SF Mono',Menlo,Consolas,'DejaVu Sans Mono',monospace" font-size="9" font-weight="400" fill="#6E7681"><title>golang-study — 152 commits on the default branch · 740.0 kB · 3 stars · pushed 2 Jul 2026 (dormant)</title>○ 152</text>
  <g>
    <title>tbot — 121 commits on the default branch · 310.0 kB · 1 star · pushed 11 Jan 2026 (dormant)</title>
  <polygon points="493.3963424983529,178 493.3963424983529,116.14179104477611 509.3963424983529,108.14179104477611 509.3963424983529,170" fill="#21262D"/>
  <polygon points="440,116.14179104477611 493.3963424983529,116.14179104477611 509.3963424983529,108.14179104477611 456,108.14179104477611" fill="#484F58"/>
  <polygon points="440,178 493.3963424983529,178 493.3963424983529,116.14179104477611 440,116.14179104477611" fill="#30363D"/>
    <g class="win w4">
  <rect x="449.6981712491764" y="125.14179104477611" width="4" height="5" rx="1" fill="#0D1117"/>
  <rect x="459.6981712491764" y="125.14179104477611" width="4" height="5" rx="1" fill="#0D1117"/>
  <rect x="469.6981712491764" y="125.14179104477611" width="4" height="5" rx="1" fill="#0D1117"/>
  <rect x="479.6981712491764" y="125.14179104477611" width="4" height="5" rx="1" fill="#0D1117"/>
  <rect x="449.6981712491764" y="138.1417910447761" width="4" height="5" rx="1" fill="#0D1117"/>
  <rect x="459.6981712491764" y="138.1417910447761" width="4" height="5" rx="1" fill="#0D1117"/>
  <rect x="469.6981712491764" y="138.1417910447761" width="4" height="5" rx="1" fill="#0D1117"/>
  <rect x="479.6981712491764" y="138.1417910447761" width="4" height="5" rx="1" fill="#0D1117"/>
  <rect x="449.6981712491764" y="151.1417910447761" width="4" height="5" rx="1" fill="#0D1117"/>
  <rect x="459.6981712491764" y="151.1417910447761" width="4" height="5" rx="1" fill="#0D1117"/>
  <rect x="469.6981712491764" y="151.1417910447761" width="4" height="5" rx="1" fill="#0D1117"/>
  <rect x="479.6981712491764" y="151.1417910447761" width="4" height="5" rx="1" fill="#0D1117"/>
  <rect x="449.6981712491764" y="164.1417910447761" width="4" height="5" rx="1" fill="#0D1117"/>
  <rect x="459.6981712491764" y="164.1417910447761" width="4" height="5" rx="1" fill="#0D1117"/>
  <rect x="469.6981712491764" y="164.1417910447761" width="4" height="5" rx="1" fill="#0D1117"/>
  <rect x="479.6981712491764" y="164.1417910447761" width="4" height="5" rx="1" fill="#0D1117"/>
    </g>
  </g>
  <polygon points="462.3481712491764,96.14179104477611 463.2463071146793,98.9056130773712 466.152397314357,98.90572306727633 463.80138560607537,100.61396901218103 464.6993122583463,103.3778590222759 462.3481712491764,101.66979104477612 459.9970302400065,103.3778590222759 460.89495689227743,100.61396901218103 458.5439451839958,98.90572306727633 461.4500353836735,98.9056130773712" fill="#3FB950"/>
  <text x="469.3481712491764" y="103.54179104477612" font-family="ui-monospace,SFMono-Regular,'SF Mono',Menlo,Consolas,'DejaVu Sans Mono',monospace" font-size="9.5" font-weight="500" fill="#E6EDF3"><title>tbot — 121 commits on the default branch · 310.0 kB · 1 star · pushed 11 Jan 2026 (dormant)</title>1</text>
  <text x="440" y="204" font-family="ui-monospace,SFMono-Regular,'SF Mono',Menlo,Consolas,'DejaVu Sans Mono',monospace" font-size="9.5" font-weight="500" fill="#8B949E"><title>tbot — 121 commits on the default branch · 310.0 kB · 1 star · pushed 11 Jan 2026 (dormant)</title>tbot</text>
  <text x="440" y="217" font-family="ui-monospace,SFMono-Regular,'SF Mono',Menlo,Consolas,'DejaVu Sans Mono',monospace" font-size="9" font-weight="400" fill="#6E7681"><title>tbot — 121 commits on the default branch · 310.0 kB · 1 star · pushed 11 Jan 2026 (dormant)</title>○ 121</text>
  <g>
    <title>Maeker — 97 commits on the default branch · 1.3 MB · 0 stars · pushed 27 Jun 2026 (dormant)</title>
  <polygon points="606.4348726628258,178 606.4348726628258,125.63432835820896 622.4348726628258,117.63432835820896 622.4348726628258,170" fill="#21262D"/>
  <polygon points="545,125.63432835820896 606.4348726628258,125.63432835820896 622.4348726628258,117.63432835820896 561,117.63432835820896" fill="#484F58"/>
  <polygon points="545,178 606.4348726628258,178 606.4348726628258,125.63432835820896 545,125.63432835820896" fill="#30363D"/>
    <g class="win w5">
  <rect x="553.717436331413" y="134.63432835820896" width="4" height="5" rx="1" fill="#0D1117"/>
  <rect x="563.717436331413" y="134.63432835820896" width="4" height="5" rx="1" fill="#0D1117"/>
  <rect x="573.717436331413" y="134.63432835820896" width="4" height="5" rx="1" fill="#0D1117"/>
  <rect x="583.717436331413" y="134.63432835820896" width="4" height="5" rx="1" fill="#0D1117"/>
  <rect x="593.717436331413" y="134.63432835820896" width="4" height="5" rx="1" fill="#0D1117"/>
  <rect x="553.717436331413" y="147.63432835820896" width="4" height="5" rx="1" fill="#0D1117"/>
  <rect x="563.717436331413" y="147.63432835820896" width="4" height="5" rx="1" fill="#0D1117"/>
  <rect x="573.717436331413" y="147.63432835820896" width="4" height="5" rx="1" fill="#0D1117"/>
  <rect x="583.717436331413" y="147.63432835820896" width="4" height="5" rx="1" fill="#0D1117"/>
  <rect x="593.717436331413" y="147.63432835820896" width="4" height="5" rx="1" fill="#0D1117"/>
  <rect x="553.717436331413" y="160.63432835820896" width="4" height="5" rx="1" fill="#0D1117"/>
  <rect x="563.717436331413" y="160.63432835820896" width="4" height="5" rx="1" fill="#0D1117"/>
  <rect x="573.717436331413" y="160.63432835820896" width="4" height="5" rx="1" fill="#0D1117"/>
  <rect x="583.717436331413" y="160.63432835820896" width="4" height="5" rx="1" fill="#0D1117"/>
  <rect x="593.717436331413" y="160.63432835820896" width="4" height="5" rx="1" fill="#0D1117"/>
    </g>
  </g>
  <text x="545" y="204" font-family="ui-monospace,SFMono-Regular,'SF Mono',Menlo,Consolas,'DejaVu Sans Mono',monospace" font-size="9.5" font-weight="500" fill="#8B949E"><title>Maeker — 97 commits on the default branch · 1.3 MB · 0 stars · pushed 27 Jun 2026 (dormant)</title>Maeker</text>
  <text x="545" y="217" font-family="ui-monospace,SFMono-Regular,'SF Mono',Menlo,Consolas,'DejaVu Sans Mono',monospace" font-size="9" font-weight="400" fill="#6E7681"><title>Maeker — 97 commits on the default branch · 1.3 MB · 0 stars · pushed 27 Jun 2026 (dormant)</title>○ 97</text>
  <g>
    <title>COR-BOT — 58 commits on the default branch · 180.0 kB · 0 stars · pushed 14 Jul 2025 (dormant)</title>
  <polygon points="701.6360186197663,178 701.6360186197663,141.05970149253733 717.6360186197663,133.05970149253733 717.6360186197663,170" fill="#21262D"/>
  <polygon points="650,141.05970149253733 701.6360186197663,141.05970149253733 717.6360186197663,133.05970149253733 666,133.05970149253733" fill="#484F58"/>
  <polygon points="650,178 701.6360186197663,178 701.6360186197663,141.05970149253733 650,141.05970149253733" fill="#30363D"/>
    <g class="win w6">
  <rect x="658.8180093098832" y="150.05970149253733" width="4" height="5" rx="1" fill="#0D1117"/>
  <rect x="668.8180093098832" y="150.05970149253733" width="4" height="5" rx="1" fill="#0D1117"/>
  <rect x="678.8180093098832" y="150.05970149253733" width="4" height="5" rx="1" fill="#0D1117"/>
  <rect x="688.8180093098832" y="150.05970149253733" width="4" height="5" rx="1" fill="#0D1117"/>
  <rect x="658.8180093098832" y="163.05970149253733" width="4" height="5" rx="1" fill="#0D1117"/>
  <rect x="668.8180093098832" y="163.05970149253733" width="4" height="5" rx="1" fill="#0D1117"/>
  <rect x="678.8180093098832" y="163.05970149253733" width="4" height="5" rx="1" fill="#0D1117"/>
  <rect x="688.8180093098832" y="163.05970149253733" width="4" height="5" rx="1" fill="#0D1117"/>
    </g>
  </g>
  <text x="650" y="204" font-family="ui-monospace,SFMono-Regular,'SF Mono',Menlo,Consolas,'DejaVu Sans Mono',monospace" font-size="9.5" font-weight="500" fill="#8B949E"><title>COR-BOT — 58 commits on the default branch · 180.0 kB · 0 stars · pushed 14 Jul 2025 (dormant)</title>COR-BOT</text>
  <text x="650" y="217" font-family="ui-monospace,SFMono-Regular,'SF Mono',Menlo,Consolas,'DejaVu Sans Mono',monospace" font-size="9" font-weight="400" fill="#6E7681"><title>COR-BOT — 58 commits on the default branch · 180.0 kB · 0 stars · pushed 14 Jul 2025 (dormant)</title>○ 58</text>
  <g>
    <title>Daboggieman — 40 commits on the default branch · 120.0 kB · 0 stars · pushed 3 Sep 2026 (occupied)</title>
  <polygon points="805.6017899330842,178 805.6017899330842,148.17910447761193 821.6017899330842,140.17910447761193 821.6017899330842,170" fill="#116329"/>
  <polygon points="755,148.17910447761193 805.6017899330842,148.17910447761193 821.6017899330842,140.17910447761193 771,140.17910447761193" fill="#3FB950"/>
  <polygon points="755,178 805.6017899330842,178 805.6017899330842,148.17910447761193 755,148.17910447761193" fill="#1A7F37"/>
    <g class="win w7">
  <rect x="763.3008949665422" y="157.17910447761193" width="4" height="5" rx="1" fill="#7EE787"/>
  <rect x="773.3008949665422" y="157.17910447761193" width="4" height="5" rx="1" fill="#7EE787"/>
  <rect x="783.3008949665422" y="157.17910447761193" width="4" height="5" rx="1" fill="#7EE787"/>
  <rect x="793.3008949665422" y="157.17910447761193" width="4" height="5" rx="1" fill="#7EE787"/>
    </g>
  </g>
  <text x="755" y="204" font-family="ui-monospace,SFMono-Regular,'SF Mono',Menlo,Consolas,'DejaVu Sans Mono',monospace" font-size="9.5" font-weight="500" fill="#E6EDF3"><title>Daboggieman — 40 commits on the default branch · 120.0 kB · 0 stars · pushed 3 Sep 2026 (occupied)</title>Daboggieman</text>
  <text x="755" y="217" font-family="ui-monospace,SFMono-Regular,'SF Mono',Menlo,Consolas,'DejaVu Sans Mono',monospace" font-size="9" font-weight="400" fill="#6E7681"><title>Daboggieman — 40 commits on the default branch · 120.0 kB · 0 stars · pushed 3 Sep 2026 (occupied)</title>● 40</text>
  <rect x="20" y="232" width="9" height="9" rx="2" fill="#3FB950"/>
  <rect x="22" y="234" width="5" height="5" rx="1" fill="#7EE787"/>
  <text x="35" y="239" font-family="ui-monospace,SFMono-Regular,'SF Mono',Menlo,Consolas,'DejaVu Sans Mono',monospace" font-size="9.5" font-weight="400" fill="#8B949E">●  4 repos occupied — pushed in the last 30 days</text>
  <rect x="341.59999999999997" y="232" width="9" height="9" rx="2" fill="#484F58"/>
  <rect x="343.59999999999997" y="234" width="5" height="5" rx="1" fill="#0D1117"/>
  <text x="356.59999999999997" y="239" font-family="ui-monospace,SFMono-Regular,'SF Mono',Menlo,Consolas,'DejaVu Sans Mono',monospace" font-size="9.5" font-weight="400" fill="#8B949E">○  4 repos dormant</text>
  <text x="20" y="262" font-family="ui-monospace,SFMono-Regular,'SF Mono',Menlo,Consolas,'DejaVu Sans Mono',monospace" font-size="9.5" font-weight="400" fill="#6E7681">height = commits on the default branch  ·  footprint = repo size  ·  star = stargazers  ·  bars scaled to the leader</text>
</svg>
