<svg xmlns="http://www.w3.org/2000/svg" width="460" height="244" viewBox="0 0 460 244" role="img" aria-labelledby="t d">
  <title id="t">Collaboration</title>
  <desc id="d">29 collaborative acts in the last 365 days — 29 pull requests opened, 0 reviews reviewed, 0 issues filed. That is 8.8% of 329 total contributions; the rest is commits.</desc>
  <style>
    @media (prefers-reduced-motion: reduce){*{animation:none!important;opacity:1!important}}
    .cb{animation:fadeBar 700ms ease-out}
    @keyframes fadeBar{from{opacity:.35}to{opacity:1}}
    .cb0{animation-duration:560ms}
    .cb1{animation-duration:690ms}
    .cb2{animation-duration:820ms}
  </style>
  <rect x="0" y="0" width="460" height="244" rx="8" fill="#0D1117"/>
  <path d="M0 8a8 8 0 0 1 8-8h444a8 8 0 0 1 8 8v22H0Z" fill="#161B22"/>
  <line x1="0" y1="30" x2="460" y2="30" stroke="#21262D" stroke-width="1"/>
  <circle cx="16" cy="15" r="4" fill="#FF5F57" opacity="0.85"/>
  <circle cx="32" cy="15" r="4" fill="#FEBC2E" opacity="0.85"/>
  <circle cx="48" cy="15" r="4" fill="#28C840" opacity="0.85"/>
  <text x="72" y="19.5" font-family="ui-monospace,SFMono-Regular,'SF Mono',Menlo,Consolas,'DejaVu Sans Mono',monospace" font-size="11" font-weight="400" fill="#6E7681">~/collab  ·  last 365 days</text>
  <text x="18" y="52" font-family="ui-monospace,SFMono-Regular,'SF Mono',Menlo,Consolas,'DejaVu Sans Mono',monospace" font-size="10" font-weight="400" fill="#6E7681">collaborative acts</text>
  <text x="18" y="86" font-family="ui-monospace,SFMono-Regular,'SF Mono',Menlo,Consolas,'DejaVu Sans Mono',monospace" font-size="34" font-weight="700" fill="#E6EDF3"><title>29 pull requests, reviews and issues in the last 365 days</title>29</text>
  <text x="70.8" y="75" font-family="ui-monospace,SFMono-Regular,'SF Mono',Menlo,Consolas,'DejaVu Sans Mono',monospace" font-size="10" font-weight="400" fill="#8B949E">8.8% of 329 contributions</text>
  <text x="70.8" y="85" font-family="ui-monospace,SFMono-Regular,'SF Mono',Menlo,Consolas,'DejaVu Sans Mono',monospace" font-size="10" font-weight="400" fill="#6E7681">alongside 282 commits</text>
  <line x1="18" y1="100" x2="442" y2="100" stroke="#21262D" stroke-width="1"/>
  <line x1="124" y1="110" x2="124" y2="196" stroke="#30363D" stroke-width="1"/>
  <text x="18" y="125" font-family="ui-monospace,SFMono-Regular,'SF Mono',Menlo,Consolas,'DejaVu Sans Mono',monospace" font-size="11" font-weight="400" fill="#E6EDF3"><title>pull requests — 29 in the last 365 days</title>pull requests</text>
  <path d="M130 116H384A4 4 0 0 1 388 120V122A4 4 0 0 1 384 126H130Z" fill="#161B22"/>
  <path d="M130 116H384A4 4 0 0 1 388 120V122A4 4 0 0 1 384 126H130Z" fill="#3FB950" class="cb cb0"><title>pull requests — 29 in the last 365 days</title></path>
  <text x="442" y="125" font-family="ui-monospace,SFMono-Regular,'SF Mono',Menlo,Consolas,'DejaVu Sans Mono',monospace" font-size="11" font-weight="500" fill="#E6EDF3" text-anchor="end"><title>pull requests — 29 in the last 365 days</title>29</text>
  <text x="18" y="157" font-family="ui-monospace,SFMono-Regular,'SF Mono',Menlo,Consolas,'DejaVu Sans Mono',monospace" font-size="11" font-weight="400" fill="#E6EDF3"><title>reviews — 0 in the last 365 days</title>reviews</text>
  <path d="M130 148H384A4 4 0 0 1 388 152V154A4 4 0 0 1 384 158H130Z" fill="#161B22"/>
  <text x="442" y="157" font-family="ui-monospace,SFMono-Regular,'SF Mono',Menlo,Consolas,'DejaVu Sans Mono',monospace" font-size="11" font-weight="500" fill="#E6EDF3" text-anchor="end"><title>reviews — 0 in the last 365 days</title>0</text>
  <text x="18" y="189" font-family="ui-monospace,SFMono-Regular,'SF Mono',Menlo,Consolas,'DejaVu Sans Mono',monospace" font-size="11" font-weight="400" fill="#E6EDF3"><title>issues — 0 in the last 365 days</title>issues</text>
  <path d="M130 180H384A4 4 0 0 1 388 184V186A4 4 0 0 1 384 190H130Z" fill="#161B22"/>
  <text x="442" y="189" font-family="ui-monospace,SFMono-Regular,'SF Mono',Menlo,Consolas,'DejaVu Sans Mono',monospace" font-size="11" font-weight="500" fill="#E6EDF3" text-anchor="end"><title>issues — 0 in the last 365 days</title>0</text>
  <text x="18" y="232" font-family="ui-monospace,SFMono-Regular,'SF Mono',Menlo,Consolas,'DejaVu Sans Mono',monospace" font-size="9" font-weight="400" fill="#6E7681">commits are the denominator, not a bar: they would dwarf all three</text>
</svg>
