<svg xmlns="http://www.w3.org/2000/svg" width="460" height="250" viewBox="0 0 460 250" role="img" aria-labelledby="t d">
  <title id="t">Language mix</title>
  <desc id="d">Share of code by bytes across 8 public repositories, ranked.</desc>
  <rect x="0" y="0" width="460" height="250" rx="8" fill="#0D1117"/>
  <path d="M0 8a8 8 0 0 1 8-8h444a8 8 0 0 1 8 8v22H0Z" fill="#161B22"/>
  <line x1="0" y1="30" x2="460" y2="30" stroke="#21262D" stroke-width="1"/>
  <circle cx="16" cy="15" r="4" fill="#FF5F57" opacity="0.85"/>
  <circle cx="32" cy="15" r="4" fill="#FEBC2E" opacity="0.85"/>
  <circle cx="48" cy="15" r="4" fill="#28C840" opacity="0.85"/>
  <text x="72" y="19.5" font-family="ui-monospace,SFMono-Regular,'SF Mono',Menlo,Consolas,'DejaVu Sans Mono',monospace" font-size="11" font-weight="400" fill="#6E7681">~/languages  ·  8 repos</text>
  <line x1="116" y1="42" x2="116" y2="208" stroke="#30363D" stroke-width="1"/>
  <text x="18" y="57" font-family="ui-monospace,SFMono-Regular,'SF Mono',Menlo,Consolas,'DejaVu Sans Mono',monospace" font-size="11" font-weight="400" fill="#8B949E"><title>Python — 41.7% (949.8 kB)</title>Python</text>
  <path d="M122 48H374A4 4 0 0 1 378 52V54A4 4 0 0 1 374 58H122Z" fill="#3FB950"><title>Python — 41.7% (949.8 kB)</title></path>
  <text x="442" y="57" font-family="ui-monospace,SFMono-Regular,'SF Mono',Menlo,Consolas,'DejaVu Sans Mono',monospace" font-size="11" font-weight="500" fill="#E6EDF3" text-anchor="end">41.7%</text>
  <text x="18" y="81" font-family="ui-monospace,SFMono-Regular,'SF Mono',Menlo,Consolas,'DejaVu Sans Mono',monospace" font-size="11" font-weight="400" fill="#8B949E"><title>TypeScript — 23.0% (523.3 kB)</title>TypeScript</text>
  <path d="M122 72H259.05035175280034A4 4 0 0 1 263.05035175280034 76V78A4 4 0 0 1 259.05035175280034 82H122Z" fill="#3FB950"><title>TypeScript — 23.0% (523.3 kB)</title></path>
  <text x="442" y="81" font-family="ui-monospace,SFMono-Regular,'SF Mono',Menlo,Consolas,'DejaVu Sans Mono',monospace" font-size="11" font-weight="500" fill="#E6EDF3" text-anchor="end">23.0%</text>
  <text x="18" y="105" font-family="ui-monospace,SFMono-Regular,'SF Mono',Menlo,Consolas,'DejaVu Sans Mono',monospace" font-size="11" font-weight="400" fill="#8B949E"><title>HTML — 22.9% (520.3 kB)</title>HTML</text>
  <path d="M122 96H258.230937383683A4 4 0 0 1 262.230937383683 100V102A4 4 0 0 1 258.230937383683 106H122Z" fill="#3FB950"><title>HTML — 22.9% (520.3 kB)</title></path>
  <text x="442" y="105" font-family="ui-monospace,SFMono-Regular,'SF Mono',Menlo,Consolas,'DejaVu Sans Mono',monospace" font-size="11" font-weight="500" fill="#E6EDF3" text-anchor="end">22.9%</text>
  <text x="18" y="129" font-family="ui-monospace,SFMono-Regular,'SF Mono',Menlo,Consolas,'DejaVu Sans Mono',monospace" font-size="11" font-weight="400" fill="#8B949E"><title>Go — 11.2% (254.1 kB)</title>Go</text>
  <path d="M122 120H186.4799302458054A4 4 0 0 1 190.4799302458054 124V126A4 4 0 0 1 186.4799302458054 130H122Z" fill="#3FB950"><title>Go — 11.2% (254.1 kB)</title></path>
  <text x="442" y="129" font-family="ui-monospace,SFMono-Regular,'SF Mono',Menlo,Consolas,'DejaVu Sans Mono',monospace" font-size="11" font-weight="500" fill="#E6EDF3" text-anchor="end">11.2%</text>
  <text x="18" y="153" font-family="ui-monospace,SFMono-Regular,'SF Mono',Menlo,Consolas,'DejaVu Sans Mono',monospace" font-size="11" font-weight="400" fill="#8B949E"><title>Shell — 0.5% (12.4 kB)</title>Shell</text>
  <path d="M122 144H122A3.3379356295460014 3.3379356295460014 0 0 1 125.337935629546 147.337935629546V150.662064370454A3.3379356295460014 3.3379356295460014 0 0 1 122 154H122Z" fill="#3FB950"><title>Shell — 0.5% (12.4 kB)</title></path>
  <text x="442" y="153" font-family="ui-monospace,SFMono-Regular,'SF Mono',Menlo,Consolas,'DejaVu Sans Mono',monospace" font-size="11" font-weight="500" fill="#E6EDF3" text-anchor="end">0.5%</text>
  <text x="18" y="177" font-family="ui-monospace,SFMono-Regular,'SF Mono',Menlo,Consolas,'DejaVu Sans Mono',monospace" font-size="11" font-weight="400" fill="#8B949E"><title>Batchfile — 0.4% (9.2 kB)</title>Batchfile</text>
  <path d="M122 168H122A2.4887770189541394 2.4887770189541394 0 0 1 124.48877701895414 170.48877701895415V175.51122298104585A2.4887770189541394 2.4887770189541394 0 0 1 122 178H122Z" fill="#3FB950"><title>Batchfile — 0.4% (9.2 kB)</title></path>
  <text x="442" y="177" font-family="ui-monospace,SFMono-Regular,'SF Mono',Menlo,Consolas,'DejaVu Sans Mono',monospace" font-size="11" font-weight="500" fill="#E6EDF3" text-anchor="end">0.4%</text>
  <text x="18" y="201" font-family="ui-monospace,SFMono-Regular,'SF Mono',Menlo,Consolas,'DejaVu Sans Mono',monospace" font-size="11" font-weight="400" fill="#8B949E"><title>Other — 0.3% (7.8 kB)</title>Other</text>
  <path d="M122 192H122A2.1034179966644664 2.1034179966644664 0 0 1 124.10341799666446 194.10341799666446V199.89658200333554A2.1034179966644664 2.1034179966644664 0 0 1 122 202H122Z" fill="#484F58"><title>Other — 0.3% (7.8 kB)</title></path>
  <text x="442" y="201" font-family="ui-monospace,SFMono-Regular,'SF Mono',Menlo,Consolas,'DejaVu Sans Mono',monospace" font-size="11" font-weight="500" fill="#E6EDF3" text-anchor="end">0.3%</text>
  <text x="18" y="236" font-family="ui-monospace,SFMono-Regular,'SF Mono',Menlo,Consolas,'DejaVu Sans Mono',monospace" font-size="10" font-weight="400" fill="#6E7681">% of code by bytes  ·  bars scaled to the leader</text>
</svg>
